<?xml version="1.0" encoding="UTF-8" standalone="no"?>
<svg
   xmlns:dc="http://purl.org/dc/elements/1.1/"
   xmlns:cc="http://creativecommons.org/ns#"
   xmlns:rdf="http://www.w3.org/1999/02/22-rdf-syntax-ns#"
   xmlns:svg="http://www.w3.org/2000/svg"
   xmlns="http://www.w3.org/2000/svg"
   xmlns:sodipodi="http://sodipodi.sourceforge.net/DTD/sodipodi-0.dtd"
   xmlns:inkscape="http://www.inkscape.org/namespaces/inkscape"
   width="63.000004"
   height="62.622757"
   viewBox="0 0 16.700001 16.600001"
   version="1.1"
   id="svg4790"
   sodipodi:docname="logo-web3-marketing-with-shadow.svg"
   inkscape:version="0.92.3 (2405546, 2018-03-11)">
  <metadata
     id="metadata4796">
    <rdf:RDF>
      <cc:Work
         rdf:about="">
        <dc:format>image/svg+xml</dc:format>
        <dc:type
           rdf:resource="http://purl.org/dc/dcmitype/StillImage" />
        <dc:title></dc:title>
      </cc:Work>
    </rdf:RDF>
  </metadata>
  <defs
     id="defs4794">
    <clipPath
       clipPathUnits="userSpaceOnUse"
       id="clipPath4867">
      <rect
         style="fill:#000000;fill-opacity:1;stroke:none;stroke-width:0.26507938;stroke-opacity:1"
         id="rect4869"
         width="16.700001"
         height="16.6"
         x="0"
         y="0" />
    </clipPath>
  </defs>
  <sodipodi:namedview
     pagecolor="#ffffff"
     bordercolor="#666666"
     borderopacity="1"
     objecttolerance="10"
     gridtolerance="10"
     guidetolerance="10"
     inkscape:pageopacity="0"
     inkscape:pageshadow="2"
     inkscape:window-width="1366"
     inkscape:window-height="705"
     id="namedview4792"
     showgrid="false"
     inkscape:zoom="10.48"
     inkscape:cx="31.5"
     inkscape:cy="31.093262"
     inkscape:window-x="-8"
     inkscape:window-y="-8"
     inkscape:window-maximized="1"
     inkscape:current-layer="g4863" />
  <g
     id="g4863"
     clip-path="url(#clipPath4867)">
    <g
       id="background">
      <rect
         style="fill:#c30000;fill-opacity:1;stroke:none;stroke-width:0.26507938;stroke-opacity:1"
         id="rect4871"
         width="16.762226"
         height="16.614128"
         x="-0.062225204"
         y="-0.014128566" />
      <path
         d="m 14.1,5.4 3.6,6.2 -1,5 h -9 L 3.4,12 14.2,5.4 Z m 0.8,3 C 15,10.9 13.3,13.1 11.1,14 8.9,15 6.2,14.7 4.4,13.1 2.4,11.4 1.4,8.3 2.7,5.8 3.9,3.3 6.7,2 9.4,2.3 c 3,0.3 5.6,3 5.5,6.1 z"
         id="background-shadow"
         inkscape:connector-curvature="0"
         style="fill:#9e0001" />
    </g>
    <g
       style="fill:#ffffff"
       transform="matrix(0.27131337,0,0,0.27131337,2.1288524,2.1581999)"
       id="g4812">
      <g
         style="fill:#ffffff"
         id="g4837">
        <path
           id="path4798"
           d="M 39.29,15.88 A 18.06,18.06 0 0 1 22.5,40.55 C 12.55,40.55 4.46,32.46 4.46,22.51 A 18.06,18.06 0 0 1 30.2,6.19 7.8,7.8 0 0 1 32.56,2.39 22.52,22.52 0 0 0 0,22.5 C 0,34.9 10.1,45 22.5,45 a 22.53,22.53 0 0 0 20.74,-31.22 7.8,7.8 0 0 1 -3.95,2.1 z"
           inkscape:connector-curvature="0"
           style="fill:#ffffff;fill-opacity:1" />
        <path
           id="path4800"
           d="M 29.03,14.43 V 27.1 a 2.26,2.26 0 0 1 -4.51,0 v -9.36 h -4.08 v 9.36 a 2.26,2.26 0 0 1 -4.51,0 V 14.43 H 11.5 V 27.1 a 6.5,6.5 0 0 0 10.98,4.72 6.5,6.5 0 0 0 10.98,-4.73 V 14.44 H 29.03 Z M 40.77,7.6 A 2.3,2.3 0 0 0 41.56,5.76 C 41.56,5.02 41.26,4 40.64,3.49 A 3.74,3.74 0 0 0 38.27,2.66 3.7,3.7 0 0 0 36.01,3.38 c -0.5,0.38 -0.78,0.98 -0.87,1.87 l -0.03,0.23 v 0.06 h 0.05 l 0.23,0.03 1.35,0.18 0.23,0.03 h 0.06 V 5.72 l 0.03,-0.23 c 0.08,-0.66 0.53,-1.02 1.26,-1.02 0.68,0 1.12,0.54 1.12,1.4 0,0.46 -0.15,1 -1.35,1 h -0.67 v 1.46 h 0.67 c 1.2,0 1.35,0.55 1.35,1.02 0,0.85 -0.44,1.4 -1.12,1.4 -0.73,0 -1.18,-0.37 -1.26,-1.03 L 37.04,9.49 37.03,9.43 h -0.06 l -0.23,0.04 -1.35,0.17 -0.23,0.03 h -0.05 v 0.06 l 0.03,0.23 c 0.09,0.9 0.37,1.5 0.87,1.87 a 3.7,3.7 0 0 0 2.26,0.72 c 0.87,0 1.69,-0.29 2.37,-0.83 0.63,-0.5 0.92,-1.53 0.92,-2.27 0,-0.78 -0.27,-1.4 -0.8,-1.84 z"
           inkscape:connector-curvature="0"
           style="fill:#ffffff;fill-opacity:1" />
      </g>
    </g>
  </g>
</svg>
